<?xml version="1.0" encoding="UTF-8"?>
<svg id="_Слой_1" data-name=" Слой 1" xmlns="http://www.w3.org/2000/svg" viewBox="0 0 621.7 648.24">
  <defs>
    <style>
      .cls-1 {
        fill: #fff;
      }
    </style>
  </defs>
  <path class="cls-1" d="M406.6,219.91l-.35-.53c-2.75-4.14-6.24-7.88-8.8-12.12-24.16-40.07-37.4-89.46-28.09-136.04,4.53-22.68,15.5-45.03,35.12-58.13,19.1-12.75,41.02-15.57,63.3-11.1,47.51,9.53,87.63,47.13,113.57,86.46,28.24,42.82,48.1,99.82,37.42,151.42-4.87,23.5-15.83,45.55-36.35,58.99-17.77,11.64-38.88,14.29-59.48,9.96-32.31-6.78-61.85-27.83-84.14-51.53-.46-.54-.91-1.11-1.39-1.62-.9-.96-1.12-1.24-2.46-1.27l-1.36,1.41c-3.12,5.44-7.61,9.58-12.2,13.79-.1.04-.2.1-.31.12-1.49.18-3.14-2.53-4.1-3.65-9.36-10.94-18.7-22.22-30.3-30.89l4-2.83c5.45-3.02,11.39-6.94,15.93-11.18v-1.26h0ZM523.33,108.3c.4-4.74-.02-9.75-.03-14.52-.01-8.05.27-16.18-.15-24.21-1.36,4.75-1.28,10.73-1.67,15.7-1.74,15.55-2.7,31.86-6.33,47.09,4.71-5.67,9.98-12.55,15.88-16.96,7.02-5.25,22.32-9.69,30.78-12.87l-.73.33c.66-.62.75-.55.98-1.49l.38.86.63-.55c-1.96-.19-4.89,1.23-6.79,1.86-5.13,1.72-22.36,8.02-26.84,8.18-2.08.08-4.17-.21-5.48-2-.5-.68-.42-.65-.62-1.41h-.01ZM495.04,169.1c-5.5,2.07-11.02,4.09-16.41,6.44,1.46.57,14.66-4.43,17.23-5.16,3.52,3.23,24.58,40.6,28.56,47.53-3.83,5.82-7.54,11.71-11.14,17.67-2.19,3.67-4.27,8.05-6.88,11.38-.61.78-.89.93-1.78,1.24-12.46.76-24.97,2.11-37.39,3.38l1.17-.37-2.65.55c5.35,0,37.7-.12,40.82-1.99,4.68-7.11,9.89-13.86,14.93-20.72,2.03-2.76,3.73-5.86,6.05-8.37,13.5,6.22,27.22,11.08,40.39,18.11,3.32,1.76,6.41,4.07,9.52,6.18-2.31-2.96-5.49-5.36-8.43-7.68-3.48-2.65-6.92-5.29-10.17-8.22,1.55-5.7,2.5-11.61,3.69-17.39,2.29-10.69,4.35-21.42,6.19-32.2-11.23-2.79-22.42-5.67-33.6-8.65l-1.86-17.64c-7.17-5.67-14.77-11.18-21.08-17.82-6.38,10.88-10.75,22.93-17.18,33.73h.02,0Z"/>
  <path class="cls-1" d="M521.48,85.27c.4-4.97.31-10.95,1.67-15.7.42,8.03.14,16.17.15,24.21,0,4.77.43,9.78.03,14.52-.66-4.24.47-19.33-.67-21.47-.31-.58-.79-1.04-1.19-1.56h0Z"/>
  <path class="cls-1" d="M89.33,518.69c-3.23-7.12-9.54-14.83-13.37-22.21-15.31-29.45-25.04-61.27-26.16-94.59-1.37-55.7,19.42-109.67,57.81-150.06,27-28.87,64.76-51.05,103.31-60.14,6.78-1.6,14.13-3.27,21.1-3.5,6.92-1.37,14.31-1.66,21.35-1.88,41.8-.89,82.88,11.06,117.68,34.24,3.62,2.44,7.22,4.92,10.79,7.44,4.87-5.15,10.26-9.27,15.52-13.93,3.02,1.73,5.78,4.57,8.83,5.98-.53.73-.58,1-1.42,1.36-2.88,1.21-13,8.3-14.08,10.93l-4,2.83c11.59,8.67,20.93,19.95,30.3,30.89.96,1.12,2.61,3.83,4.1,3.65.11-.01.21-.08.31-.12l.52.24-.29.95c1.97,2.01,3.99,3.96,5.25,6.49.01.96-.13.9.5,1.7,6.35,8.01,11.35,18.21,15.61,27.49,16.54,36.04,23.39,74.42,18.42,113.9-6.48,51.49-35.64,104.42-76.85,136.22-8.42,6.5-17.41,12.88-26.82,17.87-16.49,9.7-35.85,17.11-54.52,21.13-47.03,10.08-96.09,4.19-139.4-16.73-10.34-5.07-19.72-11.22-29.38-17.45,1.59-4.5,1.47-8.93,0-13.46-3.7-11.49-16.29-23.18-26.92-28.32-6.51-3.14-11.47-3.32-18.19-.93h-.01,0ZM250.61,223.37c-43.97,2.05-88,20.27-117.82,53.15-31.61,34.29-48.09,79.86-45.75,126.43,2.16,44.68,21.91,86.69,54.93,116.87,34.22,30.73,81.38,45.87,127.07,43.12,13.01-.78,26.57-2.91,39.01-6.86,4.77-1.52,14.01-5.86,18.24-6.38,20.67-10.58,37.6-21.62,53.58-38.76,32.41-34.78,48.15-76.92,46.39-124.44-2.02-44.86-21.44-87.18-54.15-117.95-32.85-30.67-76.59-46.94-121.5-45.18h0Z"/>
  <path class="cls-1" d="M406.18,220.04l.42-.13v1.23c-4.53,4.24-10.47,8.16-15.93,11.18,1.09-2.63,11.21-9.71,14.08-10.93.85-.36.89-.63,1.42-1.36h.01,0Z"/>
  <path class="cls-1" d="M179.85,252.88c27.29-13.99,56.71-21.16,87.49-18.88,7.55,3.51,27.24,1.6,35.43,7.61-6.97,10.81-13.14,22.36-19.45,33.57-9.54,17.06-19.25,34.02-29.14,50.88-16.6-16.9-33.4-33.62-50.37-50.15-7.79-7.66-15.21-16.5-23.95-23.03h0Z"/>
  <path class="cls-1" d="M267.34,234c29.14.57,59.75,12.35,83.15,29.54,8.59,6.31,16.46,13.76,23.83,21.45,1.56,1.62,3.17,3.27,4.44,5.14-13.54,7.65-27.63,14.3-41.59,21.15-9.74,4.78-19.45,10.04-29.48,14.17-.68-27.95-3.23-55.92-4.91-83.84-8.19-6.01-27.88-4.1-35.43-7.61h-.01,0Z"/>
  <path class="cls-1" d="M298.57,446.11c13.56,1.64,27.26,4.92,40.72,7.34,9.2,1.65,19.16,2.52,28.15,4.93l-.67.55c-5.1-.82-44.41-8.04-45.91-7.6l.56.38c.22.16.44.32.67.47.15.1.31.17.45.28,1.79,1.45,2.33,5.21,3.9,7.07,1.76,2.1,5.76,2.61,7.88,4.48,2.54,2.24,8.98,16.99,9.61,20.46.05.28.11.57.16.85.79,4.48.15,9.02.66,13.5.97,8.62,7.09,13.12,4.83,22.69l-.22.95c-.05.2-.1.4-.15.61,2.13-.32,4.6-3.43,6.62-4.56,5.41-3.03,14.67-13.45,18.85-18.41.88-.01.57-.18,1.03.25-6.55,9.85-24.52,23.43-34.92,29.84-35.95,22.37-79.36,29.42-120.55,19.58-41.39-10.05-78.97-36.81-101.05-73.23-22.18-36.58-27.62-82.36-17.28-123.66,8.68-33.69,28.11-63.63,55.35-85.28,6.83-5.35,14.3-9.74,21.73-14.18,3.11,13.53,7.11,26.83,10.62,40.26,5.01,19.84,10.14,39.64,15.39,59.42-14.45,2.02-29.07,3.13-43.6,4.44-19.2,1.82-38.41,3.52-57.63,5.12,8.39,6.64,18.8,11.47,28.24,16.5,21.35,11.2,42.93,21.96,64.72,32.29-7.67,13.59-16.34,26.65-24.61,39.88-9.8,15.68-19.27,31.57-30.2,46.5,18.71-6.65,36.86-15.16,55.13-22.91,15-6.36,30.26-11.9,44.77-19.37,5.68,8.01,10.71,16.67,15.95,24.98,13.02,20.6,26.01,41.15,41.69,59.87-.45-12.06-.28-24.16-.4-36.23l-.49-58.05h0Z"/>
  <path class="cls-1" d="M421.38,269.58c4.59-4.21,9.08-8.35,12.2-13.79l1.37.62c-4.3,4.84-7.82,9.49-13.05,13.41l-.52-.24h0Z"/>
  <path class="cls-1" d="M434.95,256.41c1.2.15,1.79,1.24,2.52,2.18l3.23,5.78c-4.38,4.26-8.87,9.35-13.84,12.89-1.26-2.54-3.29-4.49-5.25-6.49l.29-.95c5.23-3.92,8.74-8.57,13.05-13.41h0Z"/>
  <path class="cls-1" d="M367.43,458.37c8.61,1,17.18,2.56,25.76,3.79-6.27-7.28-13.47-13.83-20.18-20.7-17.49-17.9-35.34-35.51-52.3-53.92l51.96-21.19c11.93-4.77,25.03-9.05,36.25-15.25-20.52-1.86-40.76-5.21-61.18-7.86,7.61-8.45,14.64-17.32,21.76-26.18,5.12-6.37,10.11-12.95,16.03-18.61,24.2,34.09,35.71,78.99,28.65,120.38-4.11,24.05-12.94,45.9-26.58,66.16-3.57,5.3-7.41,10.83-11.9,15.38-.47-.43-.15-.26-1.03-.25-4.18,4.96-13.44,15.38-18.85,18.41-2.02,1.13-4.49,4.24-6.62,4.56.05-.2.1-.4.15-.61l.22-.95c2.26-9.57-3.86-14.08-4.83-22.69-.51-4.48.13-9.02-.66-13.5-.05-.29-.11-.57-.16-.85-.64-3.46-7.07-18.21-9.61-20.46-2.12-1.87-6.12-2.39-7.88-4.48-1.57-1.87-2.1-5.62-3.9-7.07-.14-.11-.3-.18-.45-.28-.23-.15-.44-.32-.67-.47l-.56-.38c1.51-.43,40.81,6.78,45.91,7.6l.67-.55v-.03h0Z"/>
  <path class="cls-1" d="M242.22,409.91c-1.61-1.48-3.01-3.06-4.27-4.85-4.53-6.58-6.21-14.71-4.65-22.54.83-4.03,3.23-10.2,6.88-12.47,6.31-3.93,13.28-6.87,19.98-10.08l36.43-17.31c21.6-10.36,42.58-22,64.5-31.69l.66.14c-.23.96-.06.74-.58,1.42-3.6,4.68-7.75,8.96-11.45,13.58-15.45,19.36-31.15,38.52-47.09,57.48-6.86,8.24-17.47,23.15-25.07,29.85-2.92,2.57-6.71,3.65-10.52,4.2-9.58,1.37-17.38-2.17-24.81-7.72h-.01Z"/>
  <path class="cls-1" d="M89.42,520.7c6.56-2.04,11.4-1.59,17.56,1.6,9.67,5.01,21.18,15.11,24.61,25.77,1.44,4.48,1.51,8.52-.03,12.95-3.56,5.2-10.72,11.68-17.07,12.97-.58.12-1.16.19-1.74.26-3.15-.53-6.31-1.03-9.43-1.74,1.05-3.15,1.27-7.22.56-10.47-1.17-5.36-4.45-10.03-9.1-12.95-8.32-5.2-9.98-1.87-17.98-.9-1.28.16-1.5-.35-2.39-1.17-.43-1.18-.64-2.03-.42-3.32,1.36-8.13,8.77-18.42,15.44-23h-.01Z"/>
  <path class="cls-1" d="M102,575.12c3.28.5,6.6,1.11,9.81,1.95,3.52,9.89,3.04,21.99.05,31.96-4.01,13.38-13.87,25.84-26.2,32.46-13.52,7.26-30.08,8.65-44.72,4.24-14.47-4.36-27.44-14.75-34.5-28.16-7.24-13.75-8.29-30.38-3.57-45.12,4.36-13.64,14.53-25.13,27.25-31.63,13.19-6.74,28.57-6.59,42.39-2.08-.45,3.48.52,7.78-.35,10.92-.47,1.68-1.71,2.03-3.1,2.87-9.18-2.67-18.08-3.9-27.44-1.19-9.71,2.81-17.57,10.83-22.31,19.51-5.24,9.59-6.84,20.59-3.72,31.14,3.31,11.19,10.66,21.17,21.02,26.72,10.39,5.59,22.57,6.82,33.87,3.4,10.67-3.23,19.52-10.27,24.78-20.14,5.12-9.61,6.58-21.15,3.43-31.61,1.31-1.68,2.66-3.19,3.32-5.25h-.01Z"/>
  <path class="cls-1" d="M87.8,582.36c-9.04,1.94-17.93-3.83-19.84-12.87s3.89-17.91,12.94-19.79c9-1.87,17.82,3.9,19.72,12.89,1.9,9-3.83,17.83-12.82,19.77h0Z"/>
</svg>